<mxfile host="Electron" modified="2023-06-04T21:01:38.216Z" agent="Mozilla/5.0 (Windows NT 10.0; Win64; x64) AppleWebKit/537.36 (KHTML, like Gecko) draw.io/21.2.8 Chrome/112.0.5615.165 Electron/24.2.0 Safari/537.36" etag="av7i_ksgLFgg1fFLJBdV" version="21.2.8" type="device">
  <diagram name="Page-1" id="mLQ_XVHuGvEOCb3nRhEn">
    <mxGraphModel dx="1418" dy="828" grid="1" gridSize="10" guides="1" tooltips="1" connect="1" arrows="1" fold="1" page="1" pageScale="1" pageWidth="1169" pageHeight="1654" math="0" shadow="0">
      <root>
        <mxCell id="0" />
        <mxCell id="1" parent="0" />
        <mxCell id="KvnRA5Yr2zpOSTINbMvu-146" style="edgeStyle=orthogonalEdgeStyle;rounded=0;orthogonalLoop=1;jettySize=auto;html=1;exitX=0.5;exitY=1;exitDx=0;exitDy=0;exitPerimeter=0;strokeWidth=2;endArrow=none;endFill=0;" parent="1" target="KvnRA5Yr2zpOSTINbMvu-25" edge="1">
          <mxGeometry relative="1" as="geometry">
            <mxPoint x="139.05500000000006" y="278.74" as="sourcePoint" />
            <Array as="points">
              <mxPoint x="140" y="279" />
            </Array>
          </mxGeometry>
        </mxCell>
        <mxCell id="khyOvqJB74KbkY-MV7Ck-54" style="edgeStyle=orthogonalEdgeStyle;rounded=0;orthogonalLoop=1;jettySize=auto;html=1;exitX=0.5;exitY=1;exitDx=0;exitDy=0;exitPerimeter=0;entryX=0;entryY=0.5;entryDx=0;entryDy=0;strokeWidth=2;endArrow=none;endFill=0;" parent="1" target="KvnRA5Yr2zpOSTINbMvu-4" edge="1">
          <mxGeometry relative="1" as="geometry">
            <mxPoint x="139.05500000000006" y="278.74" as="sourcePoint" />
            <Array as="points">
              <mxPoint x="139" y="320" />
            </Array>
          </mxGeometry>
        </mxCell>
        <mxCell id="khyOvqJB74KbkY-MV7Ck-52" style="edgeStyle=orthogonalEdgeStyle;rounded=0;orthogonalLoop=1;jettySize=auto;html=1;exitX=1;exitY=0.5;exitDx=0;exitDy=0;entryX=0;entryY=0.5;entryDx=0;entryDy=0;entryPerimeter=0;strokeWidth=2;endArrow=none;endFill=0;" parent="1" source="KvnRA5Yr2zpOSTINbMvu-4" target="khyOvqJB74KbkY-MV7Ck-1" edge="1">
          <mxGeometry relative="1" as="geometry" />
        </mxCell>
        <mxCell id="KvnRA5Yr2zpOSTINbMvu-4" value="Открытие страницы &quot;Новости&quot;" style="rounded=0;whiteSpace=wrap;html=1;absoluteArcSize=1;arcSize=14;strokeWidth=2;" parent="1" vertex="1">
          <mxGeometry x="240.0000000000001" y="280.63" width="118.11" height="78.74" as="geometry" />
        </mxCell>
        <mxCell id="khyOvqJB74KbkY-MV7Ck-39" style="edgeStyle=orthogonalEdgeStyle;rounded=0;orthogonalLoop=1;jettySize=auto;html=1;exitX=1;exitY=0.5;exitDx=0;exitDy=0;entryX=0;entryY=0.5;entryDx=0;entryDy=0;entryPerimeter=0;strokeWidth=2;endArrow=none;endFill=0;" parent="1" source="KvnRA5Yr2zpOSTINbMvu-5" target="khyOvqJB74KbkY-MV7Ck-15" edge="1">
          <mxGeometry relative="1" as="geometry" />
        </mxCell>
        <mxCell id="KvnRA5Yr2zpOSTINbMvu-5" value="Открытие определенной новости" style="rounded=0;whiteSpace=wrap;html=1;absoluteArcSize=1;arcSize=14;strokeWidth=2;" parent="1" vertex="1">
          <mxGeometry x="721.26" y="482.89" width="118.11" height="78.74" as="geometry" />
        </mxCell>
        <mxCell id="khyOvqJB74KbkY-MV7Ck-56" style="edgeStyle=orthogonalEdgeStyle;rounded=0;orthogonalLoop=1;jettySize=auto;html=1;exitX=0.5;exitY=0;exitDx=0;exitDy=0;exitPerimeter=0;entryX=0.5;entryY=0;entryDx=0;entryDy=0;entryPerimeter=0;strokeWidth=2;endArrow=none;endFill=0;" parent="1" source="KvnRA5Yr2zpOSTINbMvu-15" target="KvnRA5Yr2zpOSTINbMvu-25" edge="1">
          <mxGeometry relative="1" as="geometry">
            <Array as="points">
              <mxPoint x="1089" y="1040" />
              <mxPoint x="139" y="1040" />
            </Array>
          </mxGeometry>
        </mxCell>
        <mxCell id="KvnRA5Yr2zpOSTINbMvu-15" value="Конец цикла" style="strokeWidth=2;html=1;shape=mxgraph.flowchart.loop_limit;whiteSpace=wrap;flipH=1;flipV=1;" parent="1" vertex="1">
          <mxGeometry x="1030" y="941.3700000000002" width="118.11" height="78.74" as="geometry" />
        </mxCell>
        <mxCell id="KvnRA5Yr2zpOSTINbMvu-190" style="edgeStyle=orthogonalEdgeStyle;rounded=0;orthogonalLoop=1;jettySize=auto;html=1;exitX=0.5;exitY=1;exitDx=0;exitDy=0;exitPerimeter=0;entryX=0.5;entryY=0;entryDx=0;entryDy=0;strokeWidth=2;endArrow=none;endFill=0;" parent="1" source="KvnRA5Yr2zpOSTINbMvu-25" target="KvnRA5Yr2zpOSTINbMvu-187" edge="1">
          <mxGeometry relative="1" as="geometry" />
        </mxCell>
        <mxCell id="KvnRA5Yr2zpOSTINbMvu-25" value="TM" style="strokeWidth=2;html=1;shape=mxgraph.flowchart.start_2;whiteSpace=wrap;" parent="1" vertex="1">
          <mxGeometry x="119.37000000000013" y="1960" width="39.37" height="39.37" as="geometry" />
        </mxCell>
        <mxCell id="khyOvqJB74KbkY-MV7Ck-14" style="edgeStyle=orthogonalEdgeStyle;rounded=0;orthogonalLoop=1;jettySize=auto;html=1;exitX=0.5;exitY=1;exitDx=0;exitDy=0;exitPerimeter=0;entryX=0.5;entryY=1;entryDx=0;entryDy=0;entryPerimeter=0;strokeWidth=2;endArrow=none;endFill=0;" parent="1" source="KvnRA5Yr2zpOSTINbMvu-30" target="khyOvqJB74KbkY-MV7Ck-2" edge="1">
          <mxGeometry relative="1" as="geometry" />
        </mxCell>
        <mxCell id="khyOvqJB74KbkY-MV7Ck-38" style="edgeStyle=orthogonalEdgeStyle;rounded=0;orthogonalLoop=1;jettySize=auto;html=1;exitX=1;exitY=0.5;exitDx=0;exitDy=0;exitPerimeter=0;entryX=0;entryY=0.5;entryDx=0;entryDy=0;strokeWidth=2;endArrow=none;endFill=0;" parent="1" source="KvnRA5Yr2zpOSTINbMvu-30" target="KvnRA5Yr2zpOSTINbMvu-5" edge="1">
          <mxGeometry relative="1" as="geometry" />
        </mxCell>
        <mxCell id="KvnRA5Yr2zpOSTINbMvu-30" value="Выбрана определенная новость" style="strokeWidth=2;html=1;shape=mxgraph.flowchart.decision;whiteSpace=wrap;" parent="1" vertex="1">
          <mxGeometry x="399.9999999999999" y="482.89" width="118.11" height="78.74" as="geometry" />
        </mxCell>
        <mxCell id="khyOvqJB74KbkY-MV7Ck-45" style="edgeStyle=orthogonalEdgeStyle;rounded=0;orthogonalLoop=1;jettySize=auto;html=1;exitX=1;exitY=0.5;exitDx=0;exitDy=0;exitPerimeter=0;entryX=0;entryY=0.5;entryDx=0;entryDy=0;strokeWidth=2;endArrow=none;endFill=0;" parent="1" source="KvnRA5Yr2zpOSTINbMvu-32" target="KvnRA5Yr2zpOSTINbMvu-33" edge="1">
          <mxGeometry relative="1" as="geometry" />
        </mxCell>
        <mxCell id="khyOvqJB74KbkY-MV7Ck-47" style="edgeStyle=orthogonalEdgeStyle;rounded=0;orthogonalLoop=1;jettySize=auto;html=1;exitX=0.5;exitY=1;exitDx=0;exitDy=0;exitPerimeter=0;entryX=0.5;entryY=0;entryDx=0;entryDy=0;entryPerimeter=0;strokeWidth=2;endArrow=none;endFill=0;" parent="1" source="KvnRA5Yr2zpOSTINbMvu-32" target="khyOvqJB74KbkY-MV7Ck-22" edge="1">
          <mxGeometry relative="1" as="geometry" />
        </mxCell>
        <mxCell id="KvnRA5Yr2zpOSTINbMvu-32" value="Это страница контакты" style="strokeWidth=2;html=1;shape=mxgraph.flowchart.decision;whiteSpace=wrap;" parent="1" vertex="1">
          <mxGeometry x="1030" y="700.11" width="118.11" height="78.74" as="geometry" />
        </mxCell>
        <mxCell id="khyOvqJB74KbkY-MV7Ck-48" style="edgeStyle=orthogonalEdgeStyle;rounded=0;orthogonalLoop=1;jettySize=auto;html=1;exitX=0.5;exitY=1;exitDx=0;exitDy=0;entryX=0.5;entryY=0;entryDx=0;entryDy=0;entryPerimeter=0;strokeWidth=2;endArrow=none;endFill=0;" parent="1" source="KvnRA5Yr2zpOSTINbMvu-33" target="khyOvqJB74KbkY-MV7Ck-22" edge="1">
          <mxGeometry relative="1" as="geometry" />
        </mxCell>
        <mxCell id="KvnRA5Yr2zpOSTINbMvu-33" value="Отображение списка контактов" style="rounded=0;whiteSpace=wrap;html=1;absoluteArcSize=1;arcSize=14;strokeWidth=2;" parent="1" vertex="1">
          <mxGeometry x="1186.2200000000003" y="700.11" width="118.11" height="78.74" as="geometry" />
        </mxCell>
        <mxCell id="khyOvqJB74KbkY-MV7Ck-101" style="edgeStyle=orthogonalEdgeStyle;rounded=0;orthogonalLoop=1;jettySize=auto;html=1;exitX=1;exitY=0.5;exitDx=0;exitDy=0;entryX=0;entryY=0.5;entryDx=0;entryDy=0;entryPerimeter=0;strokeWidth=2;endArrow=none;endFill=0;" parent="1" source="KvnRA5Yr2zpOSTINbMvu-35" target="khyOvqJB74KbkY-MV7Ck-60" edge="1">
          <mxGeometry relative="1" as="geometry" />
        </mxCell>
        <mxCell id="KvnRA5Yr2zpOSTINbMvu-35" value="Открытие страницы &quot;Корзина&quot;" style="rounded=0;whiteSpace=wrap;html=1;absoluteArcSize=1;arcSize=14;strokeWidth=2;" parent="1" vertex="1">
          <mxGeometry x="240.00000000000023" y="1120.2600000000002" width="118.11" height="78.74" as="geometry" />
        </mxCell>
        <mxCell id="khyOvqJB74KbkY-MV7Ck-73" style="edgeStyle=orthogonalEdgeStyle;rounded=0;orthogonalLoop=1;jettySize=auto;html=1;exitX=0.5;exitY=1;exitDx=0;exitDy=0;exitPerimeter=0;entryX=0.5;entryY=1;entryDx=0;entryDy=0;entryPerimeter=0;strokeWidth=2;endArrow=none;endFill=0;" parent="1" source="KvnRA5Yr2zpOSTINbMvu-36" target="khyOvqJB74KbkY-MV7Ck-61" edge="1">
          <mxGeometry relative="1" as="geometry" />
        </mxCell>
        <mxCell id="khyOvqJB74KbkY-MV7Ck-78" style="edgeStyle=orthogonalEdgeStyle;rounded=0;orthogonalLoop=1;jettySize=auto;html=1;exitX=1;exitY=0.5;exitDx=0;exitDy=0;exitPerimeter=0;entryX=0;entryY=0.5;entryDx=0;entryDy=0;entryPerimeter=0;strokeWidth=2;endArrow=none;endFill=0;" parent="1" source="KvnRA5Yr2zpOSTINbMvu-36" target="khyOvqJB74KbkY-MV7Ck-74" edge="1">
          <mxGeometry relative="1" as="geometry" />
        </mxCell>
        <mxCell id="KvnRA5Yr2zpOSTINbMvu-36" value="Кол-во в&lt;br&gt;корзине&lt;br&gt;нуль" style="strokeWidth=2;html=1;shape=mxgraph.flowchart.decision;whiteSpace=wrap;" parent="1" vertex="1">
          <mxGeometry x="398.48" y="1420.2600000000002" width="118.11" height="78.74" as="geometry" />
        </mxCell>
        <mxCell id="khyOvqJB74KbkY-MV7Ck-80" style="edgeStyle=orthogonalEdgeStyle;rounded=0;orthogonalLoop=1;jettySize=auto;html=1;exitX=1;exitY=0.5;exitDx=0;exitDy=0;entryX=0;entryY=0.5;entryDx=0;entryDy=0;entryPerimeter=0;strokeWidth=2;endArrow=none;endFill=0;" parent="1" source="KvnRA5Yr2zpOSTINbMvu-37" target="KvnRA5Yr2zpOSTINbMvu-38" edge="1">
          <mxGeometry relative="1" as="geometry" />
        </mxCell>
        <mxCell id="KvnRA5Yr2zpOSTINbMvu-37" value="Отправка e-mail сообщение менеджеру и клиенту" style="rounded=0;whiteSpace=wrap;html=1;absoluteArcSize=1;arcSize=14;strokeWidth=2;" parent="1" vertex="1">
          <mxGeometry x="721.26" y="1420.2600000000002" width="118.11" height="78.74" as="geometry" />
        </mxCell>
        <mxCell id="khyOvqJB74KbkY-MV7Ck-81" style="edgeStyle=orthogonalEdgeStyle;rounded=0;orthogonalLoop=1;jettySize=auto;html=1;exitX=1;exitY=0.5;exitDx=0;exitDy=0;exitPerimeter=0;entryX=0;entryY=0.5;entryDx=0;entryDy=0;strokeWidth=2;endArrow=none;endFill=0;" parent="1" source="KvnRA5Yr2zpOSTINbMvu-38" target="KvnRA5Yr2zpOSTINbMvu-39" edge="1">
          <mxGeometry relative="1" as="geometry" />
        </mxCell>
        <mxCell id="khyOvqJB74KbkY-MV7Ck-90" style="edgeStyle=orthogonalEdgeStyle;rounded=0;orthogonalLoop=1;jettySize=auto;html=1;exitX=0.5;exitY=1;exitDx=0;exitDy=0;exitPerimeter=0;strokeWidth=2;endArrow=none;endFill=0;" parent="1" source="KvnRA5Yr2zpOSTINbMvu-38" edge="1">
          <mxGeometry relative="1" as="geometry">
            <mxPoint x="457.48" y="1650.2600000000002" as="targetPoint" />
            <Array as="points">
              <mxPoint x="936.48" y="1820.2600000000002" />
              <mxPoint x="457.48" y="1820.2600000000002" />
            </Array>
          </mxGeometry>
        </mxCell>
        <mxCell id="KvnRA5Yr2zpOSTINbMvu-38" value="Запрощена&lt;br&gt;счёт-фактура" style="strokeWidth=2;html=1;shape=mxgraph.flowchart.decision;whiteSpace=wrap;" parent="1" vertex="1">
          <mxGeometry x="877.48" y="1420.2600000000002" width="118.11" height="78.74" as="geometry" />
        </mxCell>
        <mxCell id="khyOvqJB74KbkY-MV7Ck-82" style="edgeStyle=orthogonalEdgeStyle;rounded=0;orthogonalLoop=1;jettySize=auto;html=1;exitX=1;exitY=0.5;exitDx=0;exitDy=0;strokeWidth=2;endArrow=none;endFill=0;" parent="1" source="KvnRA5Yr2zpOSTINbMvu-39" target="khyOvqJB74KbkY-MV7Ck-75" edge="1">
          <mxGeometry relative="1" as="geometry" />
        </mxCell>
        <mxCell id="KvnRA5Yr2zpOSTINbMvu-39" value="Отображение страницы отправки документа&lt;br&gt;&quot;счёт-фактура&quot;" style="rounded=0;whiteSpace=wrap;html=1;absoluteArcSize=1;arcSize=14;strokeWidth=2;" parent="1" vertex="1">
          <mxGeometry x="1037.48" y="1420.2600000000002" width="118.11" height="78.74" as="geometry" />
        </mxCell>
        <mxCell id="khyOvqJB74KbkY-MV7Ck-87" style="edgeStyle=orthogonalEdgeStyle;rounded=0;orthogonalLoop=1;jettySize=auto;html=1;exitX=0;exitY=0.5;exitDx=0;exitDy=0;exitPerimeter=0;entryX=1;entryY=0.5;entryDx=0;entryDy=0;" parent="1" source="KvnRA5Yr2zpOSTINbMvu-40" target="KvnRA5Yr2zpOSTINbMvu-44" edge="1">
          <mxGeometry relative="1" as="geometry" />
        </mxCell>
        <mxCell id="khyOvqJB74KbkY-MV7Ck-88" value="" style="edgeStyle=orthogonalEdgeStyle;rounded=0;orthogonalLoop=1;jettySize=auto;html=1;strokeWidth=2;" parent="1" source="KvnRA5Yr2zpOSTINbMvu-40" target="KvnRA5Yr2zpOSTINbMvu-44" edge="1">
          <mxGeometry relative="1" as="geometry" />
        </mxCell>
        <mxCell id="khyOvqJB74KbkY-MV7Ck-94" style="edgeStyle=orthogonalEdgeStyle;rounded=0;orthogonalLoop=1;jettySize=auto;html=1;exitX=0.5;exitY=1;exitDx=0;exitDy=0;exitPerimeter=0;entryX=0.5;entryY=1;entryDx=0;entryDy=0;entryPerimeter=0;endArrow=none;endFill=0;strokeWidth=2;" parent="1" source="KvnRA5Yr2zpOSTINbMvu-40" target="khyOvqJB74KbkY-MV7Ck-93" edge="1">
          <mxGeometry relative="1" as="geometry" />
        </mxCell>
        <mxCell id="KvnRA5Yr2zpOSTINbMvu-40" value="Запрос&lt;br&gt;оформлен" style="strokeWidth=2;html=1;shape=mxgraph.flowchart.decision;whiteSpace=wrap;" parent="1" vertex="1">
          <mxGeometry x="1191.42" y="1615.2600000000002" width="118.11" height="78.74" as="geometry" />
        </mxCell>
        <mxCell id="khyOvqJB74KbkY-MV7Ck-92" style="edgeStyle=orthogonalEdgeStyle;rounded=0;orthogonalLoop=1;jettySize=auto;html=1;exitX=0;exitY=0.5;exitDx=0;exitDy=0;entryX=1;entryY=0.5;entryDx=0;entryDy=0;entryPerimeter=0;strokeWidth=2;" parent="1" source="KvnRA5Yr2zpOSTINbMvu-44" target="khyOvqJB74KbkY-MV7Ck-91" edge="1">
          <mxGeometry relative="1" as="geometry" />
        </mxCell>
        <mxCell id="KvnRA5Yr2zpOSTINbMvu-44" value="Отправка e-mail с документом&lt;br&gt;&quot;Счёт-фактура&quot;" style="rounded=0;whiteSpace=wrap;html=1;absoluteArcSize=1;arcSize=14;strokeWidth=2;" parent="1" vertex="1">
          <mxGeometry x="1037.48" y="1615.52" width="118.11" height="78.74" as="geometry" />
        </mxCell>
        <mxCell id="KvnRA5Yr2zpOSTINbMvu-187" value="Л3" style="verticalLabelPosition=middle;verticalAlign=middle;html=1;shape=offPageConnector;rounded=0;size=0.5;strokeWidth=2;labelPosition=center;align=center;" parent="1" vertex="1">
          <mxGeometry x="119.36999999999999" y="2020" width="39.37" height="47.244" as="geometry" />
        </mxCell>
        <mxCell id="khyOvqJB74KbkY-MV7Ck-11" style="edgeStyle=orthogonalEdgeStyle;rounded=0;orthogonalLoop=1;jettySize=auto;html=1;exitX=0.5;exitY=1;exitDx=0;exitDy=0;exitPerimeter=0;entryX=0.5;entryY=0;entryDx=0;entryDy=0;entryPerimeter=0;strokeWidth=2;endArrow=none;endFill=0;" parent="1" source="khyOvqJB74KbkY-MV7Ck-1" target="khyOvqJB74KbkY-MV7Ck-6" edge="1">
          <mxGeometry relative="1" as="geometry" />
        </mxCell>
        <mxCell id="khyOvqJB74KbkY-MV7Ck-1" value="Бесконечный цикл" style="strokeWidth=2;html=1;shape=mxgraph.flowchart.loop_limit;whiteSpace=wrap;" parent="1" vertex="1">
          <mxGeometry x="400" y="280.63" width="118.11" height="78.74" as="geometry" />
        </mxCell>
        <mxCell id="khyOvqJB74KbkY-MV7Ck-57" style="edgeStyle=orthogonalEdgeStyle;rounded=0;orthogonalLoop=1;jettySize=auto;html=1;exitX=0.5;exitY=0;exitDx=0;exitDy=0;exitPerimeter=0;entryX=0.5;entryY=0;entryDx=0;entryDy=0;entryPerimeter=0;endArrow=none;endFill=0;strokeWidth=2;" parent="1" source="khyOvqJB74KbkY-MV7Ck-2" target="KvnRA5Yr2zpOSTINbMvu-25" edge="1">
          <mxGeometry relative="1" as="geometry">
            <Array as="points">
              <mxPoint x="459" y="1040" />
              <mxPoint x="139" y="1040" />
            </Array>
          </mxGeometry>
        </mxCell>
        <mxCell id="khyOvqJB74KbkY-MV7Ck-2" value="Конец цикла" style="strokeWidth=2;html=1;shape=mxgraph.flowchart.loop_limit;whiteSpace=wrap;flipH=1;flipV=1;" parent="1" vertex="1">
          <mxGeometry x="400" y="590.63" width="118.11" height="78.74" as="geometry" />
        </mxCell>
        <mxCell id="khyOvqJB74KbkY-MV7Ck-12" style="edgeStyle=orthogonalEdgeStyle;rounded=0;orthogonalLoop=1;jettySize=auto;html=1;exitX=1;exitY=0.5;exitDx=0;exitDy=0;exitPerimeter=0;entryX=0;entryY=0.5;entryDx=0;entryDy=0;entryPerimeter=0;strokeWidth=2;endArrow=none;endFill=0;" parent="1" source="khyOvqJB74KbkY-MV7Ck-6" target="khyOvqJB74KbkY-MV7Ck-8" edge="1">
          <mxGeometry relative="1" as="geometry" />
        </mxCell>
        <mxCell id="khyOvqJB74KbkY-MV7Ck-13" style="edgeStyle=orthogonalEdgeStyle;rounded=0;orthogonalLoop=1;jettySize=auto;html=1;exitX=0.5;exitY=1;exitDx=0;exitDy=0;exitPerimeter=0;entryX=0.5;entryY=0;entryDx=0;entryDy=0;entryPerimeter=0;strokeWidth=2;endArrow=none;endFill=0;" parent="1" source="khyOvqJB74KbkY-MV7Ck-6" target="KvnRA5Yr2zpOSTINbMvu-30" edge="1">
          <mxGeometry relative="1" as="geometry" />
        </mxCell>
        <mxCell id="khyOvqJB74KbkY-MV7Ck-6" value="Выбран&lt;br&gt;другой&lt;br&gt;таб" style="strokeWidth=2;html=1;shape=mxgraph.flowchart.decision;whiteSpace=wrap;" parent="1" vertex="1">
          <mxGeometry x="399.9999999999999" y="380.63" width="118.11" height="78.74" as="geometry" />
        </mxCell>
        <mxCell id="khyOvqJB74KbkY-MV7Ck-8" value="TM" style="strokeWidth=2;html=1;shape=mxgraph.flowchart.start_2;whiteSpace=wrap;" parent="1" vertex="1">
          <mxGeometry x="559.9999999999999" y="401.2600000000001" width="39.37" height="39.37" as="geometry" />
        </mxCell>
        <mxCell id="khyOvqJB74KbkY-MV7Ck-18" style="edgeStyle=orthogonalEdgeStyle;rounded=0;orthogonalLoop=1;jettySize=auto;html=1;exitX=0.5;exitY=1;exitDx=0;exitDy=0;exitPerimeter=0;entryX=0.5;entryY=0;entryDx=0;entryDy=0;entryPerimeter=0;strokeWidth=2;endArrow=none;endFill=0;" parent="1" source="khyOvqJB74KbkY-MV7Ck-15" target="khyOvqJB74KbkY-MV7Ck-16" edge="1">
          <mxGeometry relative="1" as="geometry" />
        </mxCell>
        <mxCell id="khyOvqJB74KbkY-MV7Ck-15" value="Бесконечный цикл" style="strokeWidth=2;html=1;shape=mxgraph.flowchart.loop_limit;whiteSpace=wrap;" parent="1" vertex="1">
          <mxGeometry x="1030" y="482.37" width="118.11" height="78.74" as="geometry" />
        </mxCell>
        <mxCell id="khyOvqJB74KbkY-MV7Ck-19" style="edgeStyle=orthogonalEdgeStyle;rounded=0;orthogonalLoop=1;jettySize=auto;html=1;exitX=0.5;exitY=1;exitDx=0;exitDy=0;exitPerimeter=0;entryX=0.5;entryY=0;entryDx=0;entryDy=0;entryPerimeter=0;strokeWidth=2;endArrow=none;endFill=0;" parent="1" source="khyOvqJB74KbkY-MV7Ck-16" target="KvnRA5Yr2zpOSTINbMvu-32" edge="1">
          <mxGeometry relative="1" as="geometry" />
        </mxCell>
        <mxCell id="khyOvqJB74KbkY-MV7Ck-21" style="edgeStyle=orthogonalEdgeStyle;rounded=0;orthogonalLoop=1;jettySize=auto;html=1;exitX=1;exitY=0.5;exitDx=0;exitDy=0;exitPerimeter=0;entryX=0;entryY=0.5;entryDx=0;entryDy=0;entryPerimeter=0;strokeWidth=2;endArrow=none;endFill=0;" parent="1" source="khyOvqJB74KbkY-MV7Ck-16" target="khyOvqJB74KbkY-MV7Ck-17" edge="1">
          <mxGeometry relative="1" as="geometry" />
        </mxCell>
        <mxCell id="khyOvqJB74KbkY-MV7Ck-16" value="Выбран&lt;br&gt;другой&lt;br&gt;таб" style="strokeWidth=2;html=1;shape=mxgraph.flowchart.decision;whiteSpace=wrap;" parent="1" vertex="1">
          <mxGeometry x="1030" y="599.4799999999999" width="118.11" height="78.74" as="geometry" />
        </mxCell>
        <mxCell id="khyOvqJB74KbkY-MV7Ck-17" value="TM" style="strokeWidth=2;html=1;shape=mxgraph.flowchart.start_2;whiteSpace=wrap;" parent="1" vertex="1">
          <mxGeometry x="1224.96" y="619.1600000000002" width="39.37" height="39.37" as="geometry" />
        </mxCell>
        <mxCell id="khyOvqJB74KbkY-MV7Ck-28" style="edgeStyle=orthogonalEdgeStyle;rounded=0;orthogonalLoop=1;jettySize=auto;html=1;exitX=0.5;exitY=1;exitDx=0;exitDy=0;exitPerimeter=0;entryX=0.5;entryY=1;entryDx=0;entryDy=0;entryPerimeter=0;strokeWidth=2;endArrow=none;endFill=0;" parent="1" source="khyOvqJB74KbkY-MV7Ck-22" target="KvnRA5Yr2zpOSTINbMvu-15" edge="1">
          <mxGeometry relative="1" as="geometry" />
        </mxCell>
        <mxCell id="khyOvqJB74KbkY-MV7Ck-108" style="edgeStyle=orthogonalEdgeStyle;rounded=0;orthogonalLoop=1;jettySize=auto;html=1;exitX=1;exitY=0.5;exitDx=0;exitDy=0;exitPerimeter=0;entryX=0;entryY=0.5;entryDx=0;entryDy=0;entryPerimeter=0;strokeWidth=2;endArrow=none;endFill=0;" parent="1" source="khyOvqJB74KbkY-MV7Ck-22" target="khyOvqJB74KbkY-MV7Ck-23" edge="1">
          <mxGeometry relative="1" as="geometry" />
        </mxCell>
        <mxCell id="khyOvqJB74KbkY-MV7Ck-22" value="Вернуться &lt;br&gt;назад" style="strokeWidth=2;html=1;shape=mxgraph.flowchart.decision;whiteSpace=wrap;" parent="1" vertex="1">
          <mxGeometry x="1030" y="821.3700000000002" width="118.11" height="78.74" as="geometry" />
        </mxCell>
        <mxCell id="khyOvqJB74KbkY-MV7Ck-23" value="Б1" style="strokeWidth=2;html=1;shape=mxgraph.flowchart.start_2;whiteSpace=wrap;" parent="1" vertex="1">
          <mxGeometry x="1225.59" y="841.0600000000001" width="39.37" height="39.37" as="geometry" />
        </mxCell>
        <mxCell id="khyOvqJB74KbkY-MV7Ck-53" style="edgeStyle=orthogonalEdgeStyle;rounded=0;orthogonalLoop=1;jettySize=auto;html=1;exitX=0.5;exitY=1;exitDx=0;exitDy=0;exitPerimeter=0;entryX=0;entryY=0.5;entryDx=0;entryDy=0;entryPerimeter=0;strokeWidth=2;endArrow=none;endFill=0;" parent="1" source="khyOvqJB74KbkY-MV7Ck-33" target="khyOvqJB74KbkY-MV7Ck-1" edge="1">
          <mxGeometry relative="1" as="geometry" />
        </mxCell>
        <mxCell id="khyOvqJB74KbkY-MV7Ck-33" value="Б1" style="strokeWidth=2;html=1;shape=mxgraph.flowchart.start_2;whiteSpace=wrap;" parent="1" vertex="1">
          <mxGeometry x="360.6299999999999" y="199.9999999999999" width="39.37" height="39.37" as="geometry" />
        </mxCell>
        <mxCell id="khyOvqJB74KbkY-MV7Ck-35" value="Да" style="text;html=1;align=center;verticalAlign=middle;resizable=0;points=[];autosize=1;strokeColor=none;fillColor=none;" parent="1" vertex="1">
          <mxGeometry x="518.11" y="389.37" width="40" height="30" as="geometry" />
        </mxCell>
        <mxCell id="khyOvqJB74KbkY-MV7Ck-36" value="Нет" style="text;html=1;align=center;verticalAlign=middle;resizable=0;points=[];autosize=1;strokeColor=none;fillColor=none;" parent="1" vertex="1">
          <mxGeometry x="420" y="450.63" width="40" height="30" as="geometry" />
        </mxCell>
        <mxCell id="khyOvqJB74KbkY-MV7Ck-37" value="Да" style="text;html=1;align=center;verticalAlign=middle;resizable=0;points=[];autosize=1;strokeColor=none;fillColor=none;" parent="1" vertex="1">
          <mxGeometry x="518.11" y="489.3699999999998" width="40" height="30" as="geometry" />
        </mxCell>
        <mxCell id="khyOvqJB74KbkY-MV7Ck-40" value="Нет" style="text;html=1;align=center;verticalAlign=middle;resizable=0;points=[];autosize=1;strokeColor=none;fillColor=none;" parent="1" vertex="1">
          <mxGeometry x="420" y="550.63" width="40" height="30" as="geometry" />
        </mxCell>
        <mxCell id="khyOvqJB74KbkY-MV7Ck-41" value="Да" style="text;html=1;align=center;verticalAlign=middle;resizable=0;points=[];autosize=1;strokeColor=none;fillColor=none;" parent="1" vertex="1">
          <mxGeometry x="1145.5900000000001" y="606.11" width="40" height="30" as="geometry" />
        </mxCell>
        <mxCell id="khyOvqJB74KbkY-MV7Ck-42" value="Нет" style="text;html=1;align=center;verticalAlign=middle;resizable=0;points=[];autosize=1;strokeColor=none;fillColor=none;" parent="1" vertex="1">
          <mxGeometry x="1056.22" y="668.8499999999998" width="40" height="30" as="geometry" />
        </mxCell>
        <mxCell id="khyOvqJB74KbkY-MV7Ck-49" value="Да" style="text;html=1;align=center;verticalAlign=middle;resizable=0;points=[];autosize=1;strokeColor=none;fillColor=none;" parent="1" vertex="1">
          <mxGeometry x="1145.5900000000001" y="710.11" width="40" height="30" as="geometry" />
        </mxCell>
        <mxCell id="khyOvqJB74KbkY-MV7Ck-50" value="Нет" style="text;html=1;align=center;verticalAlign=middle;resizable=0;points=[];autosize=1;strokeColor=none;fillColor=none;" parent="1" vertex="1">
          <mxGeometry x="1046.22" y="770.11" width="40" height="30" as="geometry" />
        </mxCell>
        <mxCell id="khyOvqJB74KbkY-MV7Ck-51" value="" style="endArrow=classic;html=1;rounded=0;strokeWidth=2;" parent="1" edge="1">
          <mxGeometry width="50" height="50" relative="1" as="geometry">
            <mxPoint x="1246.2200000000003" y="800.11" as="sourcePoint" />
            <mxPoint x="1206.2200000000003" y="800.11" as="targetPoint" />
          </mxGeometry>
        </mxCell>
        <mxCell id="khyOvqJB74KbkY-MV7Ck-55" value="case ArticleTab" style="text;html=1;align=center;verticalAlign=middle;resizable=0;points=[];autosize=1;strokeColor=none;fillColor=none;" parent="1" vertex="1">
          <mxGeometry x="140" y="290" width="100" height="30" as="geometry" />
        </mxCell>
        <mxCell id="khyOvqJB74KbkY-MV7Ck-58" value="" style="endArrow=classic;html=1;rounded=0;strokeWidth=2;" parent="1" edge="1">
          <mxGeometry width="50" height="50" relative="1" as="geometry">
            <mxPoint x="460.0000000000001" y="1040" as="sourcePoint" />
            <mxPoint x="420.0000000000001" y="1040" as="targetPoint" />
          </mxGeometry>
        </mxCell>
        <mxCell id="khyOvqJB74KbkY-MV7Ck-59" value="" style="endArrow=classic;html=1;rounded=0;strokeWidth=2;" parent="1" edge="1">
          <mxGeometry width="50" height="50" relative="1" as="geometry">
            <mxPoint x="1086.2200000000003" y="1039.48" as="sourcePoint" />
            <mxPoint x="1046.2200000000003" y="1039.48" as="targetPoint" />
          </mxGeometry>
        </mxCell>
        <mxCell id="khyOvqJB74KbkY-MV7Ck-64" style="edgeStyle=orthogonalEdgeStyle;rounded=0;orthogonalLoop=1;jettySize=auto;html=1;exitX=0.5;exitY=1;exitDx=0;exitDy=0;exitPerimeter=0;entryX=0.5;entryY=0;entryDx=0;entryDy=0;entryPerimeter=0;strokeWidth=2;endArrow=none;endFill=0;" parent="1" source="khyOvqJB74KbkY-MV7Ck-60" target="khyOvqJB74KbkY-MV7Ck-62" edge="1">
          <mxGeometry relative="1" as="geometry" />
        </mxCell>
        <mxCell id="khyOvqJB74KbkY-MV7Ck-60" value="Бесконечный цикл" style="strokeWidth=2;html=1;shape=mxgraph.flowchart.loop_limit;whiteSpace=wrap;" parent="1" vertex="1">
          <mxGeometry x="398.48" y="1120.2600000000002" width="118.11" height="78.74" as="geometry" />
        </mxCell>
        <mxCell id="khyOvqJB74KbkY-MV7Ck-96" style="edgeStyle=orthogonalEdgeStyle;rounded=0;orthogonalLoop=1;jettySize=auto;html=1;exitX=0.5;exitY=0;exitDx=0;exitDy=0;exitPerimeter=0;entryX=0.5;entryY=0;entryDx=0;entryDy=0;entryPerimeter=0;endArrow=none;endFill=0;strokeWidth=2;" parent="1" source="khyOvqJB74KbkY-MV7Ck-61" target="KvnRA5Yr2zpOSTINbMvu-25" edge="1">
          <mxGeometry relative="1" as="geometry" />
        </mxCell>
        <mxCell id="khyOvqJB74KbkY-MV7Ck-61" value="Конец цикла" style="strokeWidth=2;html=1;shape=mxgraph.flowchart.loop_limit;whiteSpace=wrap;flipH=1;flipV=1;" parent="1" vertex="1">
          <mxGeometry x="397.48" y="1841.2600000000002" width="118.11" height="78.74" as="geometry" />
        </mxCell>
        <mxCell id="khyOvqJB74KbkY-MV7Ck-65" style="edgeStyle=orthogonalEdgeStyle;rounded=0;orthogonalLoop=1;jettySize=auto;html=1;exitX=1;exitY=0.5;exitDx=0;exitDy=0;exitPerimeter=0;entryX=0;entryY=0.5;entryDx=0;entryDy=0;entryPerimeter=0;strokeWidth=2;endArrow=none;endFill=0;" parent="1" source="khyOvqJB74KbkY-MV7Ck-62" target="khyOvqJB74KbkY-MV7Ck-63" edge="1">
          <mxGeometry relative="1" as="geometry" />
        </mxCell>
        <mxCell id="khyOvqJB74KbkY-MV7Ck-68" style="edgeStyle=orthogonalEdgeStyle;rounded=0;orthogonalLoop=1;jettySize=auto;html=1;exitX=0.5;exitY=1;exitDx=0;exitDy=0;exitPerimeter=0;entryX=0.5;entryY=0;entryDx=0;entryDy=0;entryPerimeter=0;strokeWidth=2;endArrow=none;endFill=0;" parent="1" source="khyOvqJB74KbkY-MV7Ck-62" target="khyOvqJB74KbkY-MV7Ck-66" edge="1">
          <mxGeometry relative="1" as="geometry" />
        </mxCell>
        <mxCell id="khyOvqJB74KbkY-MV7Ck-62" value="Выбран&lt;br&gt;другой&lt;br&gt;таб" style="strokeWidth=2;html=1;shape=mxgraph.flowchart.decision;whiteSpace=wrap;" parent="1" vertex="1">
          <mxGeometry x="398.4799999999999" y="1220.2600000000002" width="118.11" height="78.74" as="geometry" />
        </mxCell>
        <mxCell id="khyOvqJB74KbkY-MV7Ck-63" value="TM" style="strokeWidth=2;html=1;shape=mxgraph.flowchart.start_2;whiteSpace=wrap;" parent="1" vertex="1">
          <mxGeometry x="596.8499999999999" y="1239.9500000000003" width="39.37" height="39.37" as="geometry" />
        </mxCell>
        <mxCell id="khyOvqJB74KbkY-MV7Ck-69" style="edgeStyle=orthogonalEdgeStyle;rounded=0;orthogonalLoop=1;jettySize=auto;html=1;exitX=0.5;exitY=1;exitDx=0;exitDy=0;exitPerimeter=0;entryX=0.5;entryY=0;entryDx=0;entryDy=0;entryPerimeter=0;strokeWidth=2;endArrow=none;endFill=0;" parent="1" source="khyOvqJB74KbkY-MV7Ck-66" target="KvnRA5Yr2zpOSTINbMvu-36" edge="1">
          <mxGeometry relative="1" as="geometry" />
        </mxCell>
        <mxCell id="khyOvqJB74KbkY-MV7Ck-70" style="edgeStyle=orthogonalEdgeStyle;rounded=0;orthogonalLoop=1;jettySize=auto;html=1;exitX=1;exitY=0.5;exitDx=0;exitDy=0;exitPerimeter=0;entryX=0;entryY=0.5;entryDx=0;entryDy=0;strokeWidth=2;endArrow=none;endFill=0;" parent="1" source="khyOvqJB74KbkY-MV7Ck-66" target="khyOvqJB74KbkY-MV7Ck-67" edge="1">
          <mxGeometry relative="1" as="geometry" />
        </mxCell>
        <mxCell id="khyOvqJB74KbkY-MV7Ck-66" value="Кол-во в &lt;br&gt;корзине&lt;br&gt;изменено" style="strokeWidth=2;html=1;shape=mxgraph.flowchart.decision;whiteSpace=wrap;" parent="1" vertex="1">
          <mxGeometry x="398.48" y="1310.2600000000002" width="118.11" height="78.74" as="geometry" />
        </mxCell>
        <mxCell id="khyOvqJB74KbkY-MV7Ck-71" style="edgeStyle=orthogonalEdgeStyle;rounded=0;orthogonalLoop=1;jettySize=auto;html=1;exitX=0.5;exitY=1;exitDx=0;exitDy=0;entryX=0.5;entryY=0;entryDx=0;entryDy=0;entryPerimeter=0;strokeWidth=2;endArrow=none;endFill=0;" parent="1" source="khyOvqJB74KbkY-MV7Ck-67" target="KvnRA5Yr2zpOSTINbMvu-36" edge="1">
          <mxGeometry relative="1" as="geometry">
            <Array as="points">
              <mxPoint x="622.48" y="1409.2600000000002" />
              <mxPoint x="457.48" y="1409.2600000000002" />
            </Array>
          </mxGeometry>
        </mxCell>
        <mxCell id="khyOvqJB74KbkY-MV7Ck-67" value="Изменение количества в корзине" style="rounded=0;whiteSpace=wrap;html=1;absoluteArcSize=1;arcSize=14;strokeWidth=2;" parent="1" vertex="1">
          <mxGeometry x="562.48" y="1310.2600000000002" width="118.11" height="78.74" as="geometry" />
        </mxCell>
        <mxCell id="khyOvqJB74KbkY-MV7Ck-79" style="edgeStyle=orthogonalEdgeStyle;rounded=0;orthogonalLoop=1;jettySize=auto;html=1;exitX=1;exitY=0.5;exitDx=0;exitDy=0;exitPerimeter=0;entryX=0;entryY=0.5;entryDx=0;entryDy=0;strokeWidth=2;endArrow=none;endFill=0;" parent="1" source="khyOvqJB74KbkY-MV7Ck-74" target="KvnRA5Yr2zpOSTINbMvu-37" edge="1">
          <mxGeometry relative="1" as="geometry" />
        </mxCell>
        <mxCell id="khyOvqJB74KbkY-MV7Ck-89" style="edgeStyle=orthogonalEdgeStyle;rounded=0;orthogonalLoop=1;jettySize=auto;html=1;exitX=0.5;exitY=1;exitDx=0;exitDy=0;exitPerimeter=0;endArrow=none;endFill=0;strokeWidth=2;entryX=0.5;entryY=1;entryDx=0;entryDy=0;entryPerimeter=0;" parent="1" source="khyOvqJB74KbkY-MV7Ck-74" target="khyOvqJB74KbkY-MV7Ck-61" edge="1">
          <mxGeometry relative="1" as="geometry">
            <mxPoint x="477.48" y="1610.2600000000002" as="targetPoint" />
            <Array as="points">
              <mxPoint x="621.48" y="1820.2600000000002" />
              <mxPoint x="457.48" y="1820.2600000000002" />
              <mxPoint x="457.48" y="1610.2600000000002" />
            </Array>
          </mxGeometry>
        </mxCell>
        <mxCell id="khyOvqJB74KbkY-MV7Ck-74" value="Оформлена&lt;br&gt;заявка" style="strokeWidth=2;html=1;shape=mxgraph.flowchart.decision;whiteSpace=wrap;" parent="1" vertex="1">
          <mxGeometry x="562.48" y="1420.2600000000002" width="118.11" height="78.74" as="geometry" />
        </mxCell>
        <mxCell id="khyOvqJB74KbkY-MV7Ck-83" style="edgeStyle=orthogonalEdgeStyle;rounded=0;orthogonalLoop=1;jettySize=auto;html=1;exitX=0.5;exitY=1;exitDx=0;exitDy=0;exitPerimeter=0;entryX=0.5;entryY=0;entryDx=0;entryDy=0;entryPerimeter=0;strokeWidth=2;endArrow=none;endFill=0;" parent="1" source="khyOvqJB74KbkY-MV7Ck-75" target="khyOvqJB74KbkY-MV7Ck-76" edge="1">
          <mxGeometry relative="1" as="geometry" />
        </mxCell>
        <mxCell id="khyOvqJB74KbkY-MV7Ck-75" value="Бесконечный цикл" style="strokeWidth=2;html=1;shape=mxgraph.flowchart.loop_limit;whiteSpace=wrap;" parent="1" vertex="1">
          <mxGeometry x="1191.42" y="1420.2600000000002" width="118.11" height="78.74" as="geometry" />
        </mxCell>
        <mxCell id="khyOvqJB74KbkY-MV7Ck-84" style="edgeStyle=orthogonalEdgeStyle;rounded=0;orthogonalLoop=1;jettySize=auto;html=1;exitX=0;exitY=0.5;exitDx=0;exitDy=0;exitPerimeter=0;entryX=1;entryY=0.5;entryDx=0;entryDy=0;entryPerimeter=0;strokeWidth=2;" parent="1" source="khyOvqJB74KbkY-MV7Ck-76" target="khyOvqJB74KbkY-MV7Ck-77" edge="1">
          <mxGeometry relative="1" as="geometry" />
        </mxCell>
        <mxCell id="khyOvqJB74KbkY-MV7Ck-85" style="edgeStyle=orthogonalEdgeStyle;rounded=0;orthogonalLoop=1;jettySize=auto;html=1;exitX=0.5;exitY=1;exitDx=0;exitDy=0;exitPerimeter=0;entryX=0.5;entryY=0;entryDx=0;entryDy=0;entryPerimeter=0;strokeWidth=2;endArrow=none;endFill=0;" parent="1" source="khyOvqJB74KbkY-MV7Ck-76" target="KvnRA5Yr2zpOSTINbMvu-40" edge="1">
          <mxGeometry relative="1" as="geometry" />
        </mxCell>
        <mxCell id="khyOvqJB74KbkY-MV7Ck-76" value="Выбран&lt;br&gt;другой&lt;br&gt;таб" style="strokeWidth=2;html=1;shape=mxgraph.flowchart.decision;whiteSpace=wrap;" parent="1" vertex="1">
          <mxGeometry x="1191.42" y="1519.9500000000003" width="118.11" height="78.74" as="geometry" />
        </mxCell>
        <mxCell id="khyOvqJB74KbkY-MV7Ck-77" value="TM" style="strokeWidth=2;html=1;shape=mxgraph.flowchart.start_2;whiteSpace=wrap;" parent="1" vertex="1">
          <mxGeometry x="1076.85" y="1539.6300000000006" width="39.37" height="39.37" as="geometry" />
        </mxCell>
        <mxCell id="khyOvqJB74KbkY-MV7Ck-91" value="В1" style="strokeWidth=2;html=1;shape=mxgraph.flowchart.start_2;whiteSpace=wrap;" parent="1" vertex="1">
          <mxGeometry x="956.2199999999999" y="1635.2000000000007" width="39.37" height="39.37" as="geometry" />
        </mxCell>
        <mxCell id="khyOvqJB74KbkY-MV7Ck-95" style="edgeStyle=orthogonalEdgeStyle;rounded=0;orthogonalLoop=1;jettySize=auto;html=1;exitX=0.5;exitY=0;exitDx=0;exitDy=0;exitPerimeter=0;entryX=0.5;entryY=1;entryDx=0;entryDy=0;entryPerimeter=0;strokeWidth=2;endArrow=none;endFill=0;" parent="1" source="khyOvqJB74KbkY-MV7Ck-93" target="khyOvqJB74KbkY-MV7Ck-61" edge="1">
          <mxGeometry relative="1" as="geometry" />
        </mxCell>
        <mxCell id="khyOvqJB74KbkY-MV7Ck-93" value="Конец цикла" style="strokeWidth=2;html=1;shape=mxgraph.flowchart.loop_limit;whiteSpace=wrap;flipH=1;flipV=1;" parent="1" vertex="1">
          <mxGeometry x="1191.48" y="1721.2600000000002" width="118.11" height="78.74" as="geometry" />
        </mxCell>
        <mxCell id="khyOvqJB74KbkY-MV7Ck-98" style="edgeStyle=orthogonalEdgeStyle;rounded=0;orthogonalLoop=1;jettySize=auto;html=1;exitX=0.5;exitY=1;exitDx=0;exitDy=0;endArrow=none;endFill=0;strokeWidth=2;" parent="1" source="khyOvqJB74KbkY-MV7Ck-97" edge="1">
          <mxGeometry relative="1" as="geometry">
            <mxPoint x="139" y="280" as="targetPoint" />
          </mxGeometry>
        </mxCell>
        <mxCell id="khyOvqJB74KbkY-MV7Ck-100" style="edgeStyle=orthogonalEdgeStyle;rounded=0;orthogonalLoop=1;jettySize=auto;html=1;exitX=0.5;exitY=1;exitDx=0;exitDy=0;entryX=0;entryY=0.5;entryDx=0;entryDy=0;endArrow=none;endFill=0;strokeWidth=2;" parent="1" source="khyOvqJB74KbkY-MV7Ck-97" target="KvnRA5Yr2zpOSTINbMvu-35" edge="1">
          <mxGeometry relative="1" as="geometry" />
        </mxCell>
        <mxCell id="khyOvqJB74KbkY-MV7Ck-97" value="Л2" style="verticalLabelPosition=middle;verticalAlign=middle;html=1;shape=offPageConnector;rounded=0;size=0.5;strokeWidth=2;labelPosition=center;align=center;" parent="1" vertex="1">
          <mxGeometry x="119.37" y="169.9999999999999" width="39.37" height="47.244" as="geometry" />
        </mxCell>
        <mxCell id="khyOvqJB74KbkY-MV7Ck-102" style="edgeStyle=orthogonalEdgeStyle;rounded=0;orthogonalLoop=1;jettySize=auto;html=1;exitX=0.5;exitY=1;exitDx=0;exitDy=0;exitPerimeter=0;entryX=0;entryY=0.5;entryDx=0;entryDy=0;entryPerimeter=0;strokeWidth=2;endArrow=none;endFill=0;" parent="1" source="khyOvqJB74KbkY-MV7Ck-99" target="khyOvqJB74KbkY-MV7Ck-60" edge="1">
          <mxGeometry relative="1" as="geometry" />
        </mxCell>
        <mxCell id="khyOvqJB74KbkY-MV7Ck-99" value="В1" style="strokeWidth=2;html=1;shape=mxgraph.flowchart.start_2;whiteSpace=wrap;" parent="1" vertex="1">
          <mxGeometry x="358.1099999999999" y="1070.0000000000007" width="39.37" height="39.37" as="geometry" />
        </mxCell>
        <mxCell id="khyOvqJB74KbkY-MV7Ck-103" value="" style="endArrow=classic;html=1;rounded=0;strokeWidth=2;" parent="1" edge="1">
          <mxGeometry width="50" height="50" relative="1" as="geometry">
            <mxPoint x="620.0000000000001" y="1409" as="sourcePoint" />
            <mxPoint x="580.0000000000001" y="1409" as="targetPoint" />
          </mxGeometry>
        </mxCell>
        <mxCell id="khyOvqJB74KbkY-MV7Ck-104" value="" style="endArrow=classic;html=1;rounded=0;strokeWidth=2;" parent="1" edge="1">
          <mxGeometry width="50" height="50" relative="1" as="geometry">
            <mxPoint x="1251" y="1820" as="sourcePoint" />
            <mxPoint x="1211" y="1820" as="targetPoint" />
          </mxGeometry>
        </mxCell>
        <mxCell id="khyOvqJB74KbkY-MV7Ck-105" value="" style="endArrow=classic;html=1;rounded=0;strokeWidth=2;" parent="1" edge="1">
          <mxGeometry width="50" height="50" relative="1" as="geometry">
            <mxPoint x="937.0000000000001" y="1820" as="sourcePoint" />
            <mxPoint x="897.0000000000001" y="1820" as="targetPoint" />
          </mxGeometry>
        </mxCell>
        <mxCell id="khyOvqJB74KbkY-MV7Ck-106" value="" style="endArrow=classic;html=1;rounded=0;strokeWidth=2;" parent="1" edge="1">
          <mxGeometry width="50" height="50" relative="1" as="geometry">
            <mxPoint x="620.0000000000001" y="1820" as="sourcePoint" />
            <mxPoint x="580.0000000000001" y="1820" as="targetPoint" />
          </mxGeometry>
        </mxCell>
        <mxCell id="khyOvqJB74KbkY-MV7Ck-109" value="Да" style="text;html=1;align=center;verticalAlign=middle;resizable=0;points=[];autosize=1;strokeColor=none;fillColor=none;" parent="1" vertex="1">
          <mxGeometry x="1143.7" y="826.48" width="40" height="30" as="geometry" />
        </mxCell>
        <mxCell id="khyOvqJB74KbkY-MV7Ck-111" value="Нет" style="text;html=1;align=center;verticalAlign=middle;resizable=0;points=[];autosize=1;strokeColor=none;fillColor=none;" parent="1" vertex="1">
          <mxGeometry x="1046.22" y="889.48" width="40" height="30" as="geometry" />
        </mxCell>
        <mxCell id="khyOvqJB74KbkY-MV7Ck-112" value="Да" style="text;html=1;align=center;verticalAlign=middle;resizable=0;points=[];autosize=1;strokeColor=none;fillColor=none;" parent="1" vertex="1">
          <mxGeometry x="510" y="1230" width="40" height="30" as="geometry" />
        </mxCell>
        <mxCell id="khyOvqJB74KbkY-MV7Ck-113" value="Нет" style="text;html=1;align=center;verticalAlign=middle;resizable=0;points=[];autosize=1;strokeColor=none;fillColor=none;" parent="1" vertex="1">
          <mxGeometry x="420" y="1290" width="40" height="30" as="geometry" />
        </mxCell>
        <mxCell id="khyOvqJB74KbkY-MV7Ck-114" value="Да" style="text;html=1;align=center;verticalAlign=middle;resizable=0;points=[];autosize=1;strokeColor=none;fillColor=none;" parent="1" vertex="1">
          <mxGeometry x="510.00000000000006" y="1320" width="40" height="30" as="geometry" />
        </mxCell>
        <mxCell id="khyOvqJB74KbkY-MV7Ck-115" value="Нет" style="text;html=1;align=center;verticalAlign=middle;resizable=0;points=[];autosize=1;strokeColor=none;fillColor=none;" parent="1" vertex="1">
          <mxGeometry x="420" y="1380" width="40" height="30" as="geometry" />
        </mxCell>
        <mxCell id="khyOvqJB74KbkY-MV7Ck-116" value="Да" style="text;html=1;align=center;verticalAlign=middle;resizable=0;points=[];autosize=1;strokeColor=none;fillColor=none;" parent="1" vertex="1">
          <mxGeometry x="510" y="1430" width="40" height="30" as="geometry" />
        </mxCell>
        <mxCell id="khyOvqJB74KbkY-MV7Ck-117" value="Нет" style="text;html=1;align=center;verticalAlign=middle;resizable=0;points=[];autosize=1;strokeColor=none;fillColor=none;" parent="1" vertex="1">
          <mxGeometry x="420" y="1489.95" width="40" height="30" as="geometry" />
        </mxCell>
        <mxCell id="khyOvqJB74KbkY-MV7Ck-118" value="Да" style="text;html=1;align=center;verticalAlign=middle;resizable=0;points=[];autosize=1;strokeColor=none;fillColor=none;" parent="1" vertex="1">
          <mxGeometry x="670" y="1430" width="40" height="30" as="geometry" />
        </mxCell>
        <mxCell id="khyOvqJB74KbkY-MV7Ck-119" value="Нет" style="text;html=1;align=center;verticalAlign=middle;resizable=0;points=[];autosize=1;strokeColor=none;fillColor=none;" parent="1" vertex="1">
          <mxGeometry x="585" y="1489.06" width="40" height="30" as="geometry" />
        </mxCell>
        <mxCell id="khyOvqJB74KbkY-MV7Ck-120" value="Да" style="text;html=1;align=center;verticalAlign=middle;resizable=0;points=[];autosize=1;strokeColor=none;fillColor=none;" parent="1" vertex="1">
          <mxGeometry x="990" y="1430" width="40" height="30" as="geometry" />
        </mxCell>
        <mxCell id="khyOvqJB74KbkY-MV7Ck-121" value="Нет" style="text;html=1;align=center;verticalAlign=middle;resizable=0;points=[];autosize=1;strokeColor=none;fillColor=none;" parent="1" vertex="1">
          <mxGeometry x="900" y="1489.95" width="40" height="30" as="geometry" />
        </mxCell>
        <mxCell id="khyOvqJB74KbkY-MV7Ck-122" value="Да" style="text;html=1;align=center;verticalAlign=middle;resizable=0;points=[];autosize=1;strokeColor=none;fillColor=none;" parent="1" vertex="1">
          <mxGeometry x="1155.59" y="1530" width="40" height="30" as="geometry" />
        </mxCell>
        <mxCell id="khyOvqJB74KbkY-MV7Ck-123" value="Нет" style="text;html=1;align=center;verticalAlign=middle;resizable=0;points=[];autosize=1;strokeColor=none;fillColor=none;" parent="1" vertex="1">
          <mxGeometry x="1209" y="1585.52" width="40" height="30" as="geometry" />
        </mxCell>
        <mxCell id="khyOvqJB74KbkY-MV7Ck-124" value="Да" style="text;html=1;align=center;verticalAlign=middle;resizable=0;points=[];autosize=1;strokeColor=none;fillColor=none;" parent="1" vertex="1">
          <mxGeometry x="1160" y="1624" width="40" height="30" as="geometry" />
        </mxCell>
        <mxCell id="khyOvqJB74KbkY-MV7Ck-125" value="Да" style="text;html=1;align=center;verticalAlign=middle;resizable=0;points=[];autosize=1;strokeColor=none;fillColor=none;" parent="1" vertex="1">
          <mxGeometry x="997.48" y="1624" width="40" height="30" as="geometry" />
        </mxCell>
        <mxCell id="khyOvqJB74KbkY-MV7Ck-126" value="Нет" style="text;html=1;align=center;verticalAlign=middle;resizable=0;points=[];autosize=1;strokeColor=none;fillColor=none;" parent="1" vertex="1">
          <mxGeometry x="1209" y="1680" width="40" height="30" as="geometry" />
        </mxCell>
        <mxCell id="khyOvqJB74KbkY-MV7Ck-127" value="case BasketTab" style="text;html=1;align=center;verticalAlign=middle;resizable=0;points=[];autosize=1;strokeColor=none;fillColor=none;" parent="1" vertex="1">
          <mxGeometry x="130" y="1130" width="110" height="30" as="geometry" />
        </mxCell>
        <mxCell id="zlbrN-UoD4Fc0P1dNsMm-1" value="" style="endArrow=classic;html=1;rounded=0;strokeWidth=2;" parent="1" edge="1">
          <mxGeometry width="50" height="50" relative="1" as="geometry">
            <mxPoint x="450.0000000000001" y="1940" as="sourcePoint" />
            <mxPoint x="410.0000000000001" y="1940" as="targetPoint" />
          </mxGeometry>
        </mxCell>
        <mxCell id="TFpukXpfAlbZ723NF_NB-1" value="" style="rounded=0;whiteSpace=wrap;html=1;absoluteArcSize=1;arcSize=14;strokeWidth=2;strokeColor=none;fillColor=none;" parent="1" vertex="1">
          <mxGeometry x="40" y="161" width="40" height="39" as="geometry" />
        </mxCell>
      </root>
    </mxGraphModel>
  </diagram>
</mxfile>
